<svg width="16" height="13" fill="none" xmlns="http://www.w3.org/2000/svg"><path d="M2.712 12.32h11.15c1.367 0 2.057-.691 2.057-2.038V2.394c0-1.347-.69-2.038-2.058-2.038H2.713C1.345.356.648 1.04.648 2.394v7.888c0 1.354.697 2.037 2.064 2.037zm.034-1.122c-.629 0-.977-.335-.977-.991V2.462c0-.656.348-.991.977-.991h11.081c.622 0 .978.335.978.99v7.746c0 .656-.356.991-.978.991H2.747zm8.942-4.97a1.55 1.55 0 001.545-1.551c0-.855-.698-1.552-1.545-1.552a1.55 1.55 0 00-1.552 1.552c0 .861.69 1.552 1.552 1.552zm-7.896-1.88H7.88a.46.46 0 00.458-.464.454.454 0 00-.458-.458H3.792a.454.454 0 00-.458.458.46.46 0 00.458.465zm0 1.716h2.98c.26 0 .466-.198.466-.458a.46.46 0 00-.465-.458h-2.98a.454.454 0 00-.459.458c0 .26.198.458.458.458z" fill="#fff" fill-opacity=".6"/></svg>