<svg width="13" height="15" fill="none" xmlns="http://www.w3.org/2000/svg"><path d="M.68 10.872c0 .492.383.82 1.012.82h2.707c.055 1.245 1.039 2.352 2.44 2.352 1.402 0 2.386-1.1 2.448-2.352h2.7c.629 0 1.012-.328 1.012-.82 0-.663-.65-1.244-1.217-1.818-.438-.445-.547-1.354-.609-2.147-.061-2.515-.738-4.156-2.447-4.778-.225-.848-.93-1.51-1.887-1.51s-1.654.662-1.886 1.51c-1.71.622-2.386 2.263-2.448 4.778-.054.793-.17 1.702-.608 2.147C1.33 9.628.68 10.209.68 10.872zm1.354-.219v-.082c.136-.184.52-.553.847-.93.458-.512.677-1.38.732-2.631.061-2.755.889-3.65 1.975-3.945.164-.04.253-.116.26-.287.028-.67.404-1.128.991-1.128.588 0 .971.458.992 1.128.013.171.102.246.26.287 1.086.294 1.913 1.19 1.975 3.945.061 1.25.273 2.119.731 2.632.335.376.711.745.841.93v.081H2.034zm3.445 1.04h2.728c-.048.854-.602 1.4-1.368 1.4-.765 0-1.312-.546-1.36-1.4z" fill="#fff" fill-opacity=".6"/></svg>