<svg width="16" height="15" fill="none" xmlns="http://www.w3.org/2000/svg"><path d="M3.673 14.16c.875 0 2.68-.875 4.006-1.825 4.525.11 7.916-2.495 7.916-5.906 0-3.282-3.289-5.92-7.383-5.92-4.102 0-7.39 2.638-7.39 5.92 0 2.126 1.347 4.012 3.39 4.97-.293.553-.82 1.298-1.107 1.681-.362.479-.136 1.08.568 1.08zm.71-1.155c-.06.027-.088-.014-.047-.069.355-.43.861-1.093 1.087-1.517.184-.342.13-.643-.28-.84-2.01-.937-3.172-2.434-3.172-4.15 0-2.632 2.761-4.779 6.24-4.779 3.473 0 6.235 2.147 6.235 4.779 0 2.638-2.762 4.785-6.234 4.785-.13 0-.321-.007-.568-.014-.28 0-.485.082-.731.28-.793.575-1.948 1.293-2.53 1.525z" fill="#fff" fill-opacity=".6"/></svg>