<svg width="18" height="17" fill="none" xmlns="http://www.w3.org/2000/svg"><path d="M7.969 16.71h1.578c.602 0 1.063-.366 1.203-.944l.336-1.461.25-.086L12.61 15c.507.32 1.093.242 1.523-.188l1.094-1.085c.43-.43.508-1.024.187-1.524l-.797-1.265.094-.235 1.461-.344c.57-.14.945-.609.945-1.203V7.61a1.2 1.2 0 00-.945-1.203l-1.445-.351-.102-.25.797-1.266c.32-.5.242-1.086-.187-1.523L14.14 1.922c-.422-.422-1.008-.5-1.516-.188l-1.273.782-.266-.102-.336-1.46A1.194 1.194 0 009.547.007H7.97c-.602 0-1.063.367-1.203.945l-.344 1.461-.266.102-1.265-.782c-.508-.312-1.102-.234-1.524.188L2.281 3.016c-.43.437-.515 1.023-.187 1.523l.79 1.266-.095.25-1.445.351A1.2 1.2 0 00.399 7.61v1.547c0 .594.375 1.063.945 1.203l1.46.344.087.235-.79 1.265c-.327.5-.241 1.094.188 1.524l1.086 1.085c.43.43 1.024.508 1.531.188l1.266-.781.25.086.344 1.46c.14.579.601.946 1.203.946zm.125-1.218c-.133 0-.203-.055-.227-.18L7.4 13.376a4.413 4.413 0 01-1.258-.516l-1.703 1.047c-.094.07-.196.055-.29-.039l-.921-.922c-.086-.086-.094-.18-.031-.289l1.046-1.687a5.694 5.694 0 01-.507-1.25l-1.938-.461c-.125-.024-.18-.094-.18-.227V7.727c0-.141.047-.204.18-.227l1.93-.469c.125-.508.36-.968.5-1.258l-1.04-1.687c-.07-.117-.062-.211.024-.305l.93-.906c.094-.094.18-.11.297-.04L6.125 3.86a6.337 6.337 0 011.281-.515l.461-1.938c.024-.125.094-.18.227-.18h1.328c.133 0 .203.055.219.18l.476 1.953c.485.125.907.32 1.258.508l1.696-1.031c.125-.07.203-.055.304.039l.922.906c.094.094.094.188.024.305l-1.04 1.687c.149.29.375.75.5 1.258l1.938.469c.125.023.18.086.18.227V9.03c0 .133-.063.203-.18.227l-1.945.46c-.125.477-.32.923-.508 1.25l1.047 1.688c.062.11.062.203-.032.29l-.914.921c-.101.094-.195.11-.296.04l-1.704-1.048a4.36 4.36 0 01-1.25.516l-.476 1.938c-.016.124-.086.18-.219.18H8.094zm.664-4.148a2.993 2.993 0 002.977-2.985c0-1.625-1.344-2.968-2.977-2.968-1.633 0-2.984 1.343-2.984 2.968a3 3 0 002.984 2.985zm0-1.211a1.775 1.775 0 01-1.766-1.774c0-.96.797-1.757 1.766-1.757.953 0 1.75.796 1.75 1.757 0 .97-.797 1.774-1.75 1.774z" fill="#EBEBF5" fill-opacity=".6"/></svg>