<svg width="40" height="40" fill="none" xmlns="http://www.w3.org/2000/svg"><path d="M40 20c0 11-9 20-20 20S0 31 0 20 9 0 20 0s20 9 20 20z" fill="url(#paint0_linear_0_129)"/><path d="M20.077 35.956L13.26 32.26 10 26.85l4.9-17.763 5.178 2.995v23.874z" fill="url(#paint1_linear_0_129)"/><path opacity=".8" d="M20.077 35.956V23.688l-6.021 3.547-.797 5.025 6.818 3.696z" fill="url(#paint2_linear_0_129)" fill-opacity=".7"/><g opacity=".8"><path d="M20.077 35.956l6.82-3.697 3.258-5.41-4.9-17.762-5.178 2.995v23.874z" fill="url(#paint3_linear_0_129)" fill-opacity=".7"/><path d="M20.077 35.956l6.82-3.697 3.258-5.41-4.9-17.762-5.178 2.995v23.874z" fill="url(#paint4_linear_0_129)" fill-opacity=".5"/></g><path d="M14.898 9.087l5.18 2.995v-5.99l-5.18 2.995z" fill="url(#paint5_linear_0_129)"/><path d="M20.077 26.523l3.43 1.983-3.43 1.984-3.429-1.984 3.43-1.983z" fill="url(#paint6_linear_0_129)" fill-opacity=".5"/><path d="M25.256 9.087l-5.179-2.995v5.99l5.18-2.995z" fill="url(#paint7_linear_0_129)" fill-opacity=".8"/><path d="M20.077 7.354l2.778 1.607-2.778 1.606L17.3 8.961l2.778-1.607z" fill="url(#paint8_linear_0_129)" fill-opacity=".6"/><path opacity=".8" d="M20.078 35.956V23.688l6.021 3.547.796 5.025-6.817 3.696z" fill="url(#paint9_linear_0_129)"/><path d="M30.155 26.85l-3.26 5.41-.796-5.025 4.056-.385z" fill="url(#paint10_linear_0_129)" fill-opacity=".7"/><path d="M20.077 21.85l5.581 3.227-5.58 3.228-5.582-3.228 5.581-3.227z" fill="url(#paint11_linear_0_129)" fill-opacity=".7"/><path d="M20.077 21.85l5.581 3.227-5.58 3.228-5.582-3.228 5.581-3.227z" fill="url(#paint12_linear_0_129)" fill-opacity=".7"/><path d="M20.077 28.305l5.581-3.228-2.152 3.43-3.429 1.983v-2.185z" fill="url(#paint13_linear_0_129)" fill-opacity=".9"/><path d="M20.077 28.306l-5.58-3.228 2.802-16.117 2.778 1.606v17.739z" fill="url(#paint14_linear_0_129)" fill-opacity=".6"/><path d="M20.077 28.306l5.581-3.228-2.803-16.117-2.778 1.606v17.739z" fill="url(#paint15_linear_0_129)" fill-opacity=".9"/><path d="M20.077 28.305l-5.58-3.228 2.151 3.43 3.43 1.983v-2.185z" fill="url(#paint16_linear_0_129)" fill-opacity=".9"/><path d="M10 26.85l3.26 5.41.796-5.025L10 26.85z" fill="url(#paint17_linear_0_129)" fill-opacity=".7"/><defs><linearGradient id="paint0_linear_0_129" x1="-3" y1="3" x2="43.5" y2="55.5" gradientUnits="userSpaceOnUse"><stop stop-color="#70B4E6"/><stop offset="1" stop-color="#C417E0"/></linearGradient><linearGradient id="paint1_linear_0_129" x1="39.913" y1="7.207" x2="41.367" y2="27.293" gradientUnits="userSpaceOnUse"><stop stop-color="#3D79ED"/><stop offset=".266" stop-color="#3458C1" stop-opacity=".7"/><stop offset=".619" stop-color="#3753B8" stop-opacity=".7"/><stop offset=".896" stop-color="#5BB0FF" stop-opacity=".9"/><stop offset="1" stop-color="#5BB0FF" stop-opacity=".6"/></linearGradient><linearGradient id="paint2_linear_0_129" x1="19.271" y1="34.337" x2="15.763" y2="26.558" gradientUnits="userSpaceOnUse"><stop offset=".047" stop-color="#fff"/><stop offset=".427" stop-color="#DFF4FF"/><stop offset=".995" stop-color="#0E42C8"/></linearGradient><linearGradient id="paint3_linear_0_129" x1="30.155" y1="36.696" x2="18.482" y2="27.79" gradientUnits="userSpaceOnUse"><stop offset=".28" stop-color="#fff"/><stop offset=".47" stop-color="#FF79DA"/><stop offset=".693" stop-color="#3D3AE3" stop-opacity=".9"/></linearGradient><linearGradient id="paint4_linear_0_129" x1="30.155" y1="35.451" x2="18.616" y2="24.376" gradientUnits="userSpaceOnUse"><stop offset=".161" stop-color="#fff"/><stop offset="1" stop-color="#fff" stop-opacity="0"/></linearGradient><linearGradient id="paint5_linear_0_129" x1="20.09" y1="6.191" x2="17.37" y2="10.648" gradientUnits="userSpaceOnUse"><stop stop-color="#1AD6FF"/><stop offset="1" stop-color="#496BE4" stop-opacity=".6"/><stop offset="1" stop-color="#1F3CA3"/></linearGradient><linearGradient id="paint6_linear_0_129" x1="22.045" y1="29.625" x2="17.326" y2="28.506" gradientUnits="userSpaceOnUse"><stop stop-color="#81FF6C"/><stop offset="1" stop-color="#31F3FF"/></linearGradient><linearGradient id="paint7_linear_0_129" x1="25.256" y1="8.78" x2="20.32" y2="8.321" gradientUnits="userSpaceOnUse"><stop stop-color="#FF79C9"/><stop offset="1" stop-color="#1F3CA3"/></linearGradient><linearGradient id="paint8_linear_0_129" x1="22.318" y1="9.337" x2="19.041" y2="8.961" gradientUnits="userSpaceOnUse"><stop stop-color="#52FF6E"/><stop offset="1" stop-color="#31FFFF"/></linearGradient><linearGradient id="paint9_linear_0_129" x1="25.562" y1="34.009" x2="23.012" y2="24.958" gradientUnits="userSpaceOnUse"><stop offset=".104" stop-color="#fff"/><stop offset=".437" stop-color="#FFAACE" stop-opacity=".8"/><stop offset=".719" stop-color="#6F97FF" stop-opacity=".8"/></linearGradient><linearGradient id="paint10_linear_0_129" x1="28.127" y1="30.864" x2="26.099" y2="26.85" gradientUnits="userSpaceOnUse"><stop stop-color="#fff"/><stop offset=".591" stop-color="#FF94D4"/><stop offset="1" stop-color="#C994FF"/></linearGradient><linearGradient id="paint11_linear_0_129" x1="23.28" y1="26.898" x2="15.6" y2="25.077" gradientUnits="userSpaceOnUse"><stop stop-color="#81FF6C"/><stop offset="1" stop-color="#31F3FF"/></linearGradient><linearGradient id="paint12_linear_0_129" x1="20.077" y1="28.073" x2="20.077" y2="21.702" gradientUnits="userSpaceOnUse"><stop stop-color="#fff"/><stop offset="1" stop-color="#fff" stop-opacity="0"/></linearGradient><linearGradient id="paint13_linear_0_129" x1="25.93" y1="25.077" x2="20.218" y2="30.235" gradientUnits="userSpaceOnUse"><stop offset=".15" stop-color="#fff"/><stop offset=".3" stop-color="#8CFF31"/><stop offset=".449" stop-color="#45C3EB"/><stop offset="1" stop-color="#72E6FF"/></linearGradient><linearGradient id="paint14_linear_0_129" x1="17.585" y1="28.306" x2="8.733" y2="22.102" gradientUnits="userSpaceOnUse"><stop stop-color="#6CFFED"/><stop offset="1" stop-color="#197F9F"/></linearGradient><linearGradient id="paint15_linear_0_129" x1="39.581" y1="21.053" x2="30.334" y2="11.371" gradientUnits="userSpaceOnUse"><stop offset=".465" stop-color="#fff"/><stop offset=".79" stop-color="#6DF390"/><stop offset="1" stop-color="#21CAFF" stop-opacity=".9"/></linearGradient><linearGradient id="paint16_linear_0_129" x1="14.496" y1="25.077" x2="19.936" y2="30.227" gradientUnits="userSpaceOnUse"><stop offset=".125" stop-color="#fff"/><stop offset=".298" stop-color="#8CFF31"/><stop offset=".448" stop-color="#5BF5FF"/></linearGradient><linearGradient id="paint17_linear_0_129" x1="13.472" y1="32.699" x2="12.685" y2="26.85" gradientUnits="userSpaceOnUse"><stop stop-color="#DFF4FF"/><stop offset=".995" stop-color="#0E42C8"/></linearGradient></defs></svg>