<svg width="32" height="32" fill="none" xmlns="http://www.w3.org/2000/svg"><path d="M14 1.155a4 4 0 014 0l9.856 5.69a4 4 0 012 3.464v11.382a4 4 0 01-2 3.464L18 30.845a4 4 0 01-4 0l-9.856-5.69a4 4 0 01-2-3.464V10.309a4 4 0 012-3.464L14 1.155z" stroke="url(#paint0_linear_0_187)"/><path d="M16.2 17.305c1.189 0 2.056-.885 2.056-2.186v-3.943c0-1.295-.867-2.186-2.057-2.186s-2.056.89-2.056 2.186v3.943c0 1.3.867 2.186 2.056 2.186zm-4.448-2.051c0 2.408 1.6 4.06 3.914 4.283v1.201H13.51a.554.554 0 00-.551.551c0 .299.252.545.55.545h5.38a.554.554 0 00.556-.545.555.555 0 00-.556-.55h-2.15v-1.202c2.308-.223 3.913-1.875 3.913-4.283v-1.16a.545.545 0 00-.55-.545.55.55 0 00-.557.545v1.119c0 1.992-1.348 3.31-3.346 3.31s-3.346-1.318-3.346-3.31v-1.12a.545.545 0 00-.55-.544.545.545 0 00-.551.545v1.16z" fill="#fff"/><defs><linearGradient id="paint0_linear_0_187" x1="5.2" y1="4" x2="28.4" y2="24.8" gradientUnits="userSpaceOnUse"><stop stop-color="#A73EE7"/><stop offset="1" stop-color="#00EBFF"/></linearGradient></defs></svg>