<svg width="17" height="17" fill="none" xmlns="http://www.w3.org/2000/svg"><path d="M10.313 6.866c1.765 0 3.2-1.56 3.2-3.48 0-1.882-1.428-3.39-3.2-3.39-1.765 0-3.208 1.523-3.208 3.405.007 1.912 1.436 3.465 3.208 3.465zm0-1.267c-1.018 0-1.875-.96-1.875-2.198-.007-1.208.85-2.138 1.875-2.138s1.875.923 1.875 2.124c0 1.238-.85 2.212-1.875 2.212zm-1.64 8.078h6.203c1.26 0 1.868-.395 1.868-1.252 0-2.007-2.505-4.702-6.438-4.702a7.534 7.534 0 00-3.34.754c.359.286.674.615.93.989a6.035 6.035 0 012.41-.476c3.237 0 5.053 2.11 5.053 3.23 0 .139-.066.19-.241.19h-6.24a4.327 4.327 0 01-.206 1.267zm-4.6 2.395c2.043 0 3.772-1.706 3.772-3.764 0-2.066-1.707-3.772-3.772-3.772C2.007 8.536.3 10.242.3 12.308c0 2.065 1.706 3.764 3.772 3.764zm0-1.377c-.3 0-.498-.197-.498-.498v-1.391H2.183a.473.473 0 01-.498-.498c0-.3.198-.498.498-.498h1.392v-1.392c0-.293.197-.498.498-.498.3 0 .498.205.498.498v1.392h1.391c.293 0 .498.197.498.498 0 .3-.205.498-.498.498H4.571v1.391c0 .3-.198.498-.498.498z" fill="#fff" fill-opacity=".6"/></svg>