<svg width="17" height="17" fill="none" xmlns="http://www.w3.org/2000/svg"><path d="M1.102 8.331c0 .256.117.461.315.564v.908c-.366.19-.564.6-.527 1.106.117.894.769 2.402 1.545 3.626 1.077 1.78 1.721 2.41 2.424 2.41.945 0 1.392-.88.865-1.81L2.999 10.31c-.205-.36-.498-.557-.864-.601v-.864c.146-.103.234-.286.234-.513.03-3.896 2.388-6.394 6.174-6.394 3.787 0 6.138 2.498 6.167 6.394 0 .227.088.41.242.513v.864c-.366.044-.666.242-.864.6l-2.732 4.827c-.527.93-.073 1.81.864 1.81.703 0 1.348-.63 2.425-2.41.776-1.223 1.428-2.732 1.545-3.626.037-.505-.161-.915-.527-1.106v-.908c.197-.103.314-.308.314-.564 0-4.556-2.834-7.668-7.434-7.668-4.606 0-7.44 3.112-7.44 7.668zm3.15-3.735c1.186-.652 2.6-.974 4.291-.967 1.685-.007 3.099.315 4.285.967-.945-1.26-2.344-1.912-4.285-1.912-1.948 0-3.347.652-4.292 1.912zm5.705 10.847c.3.168.579.095.74-.19l3.017-5.325c.162-.271.088-.557-.212-.725-.498-.286-1.091-.088-1.414.468l-2.446 4.322c-.315.549-.176 1.172.315 1.45zm-2.834 0c.49-.278.63-.901.314-1.45L4.992 9.67c-.315-.556-.908-.754-1.406-.468-.308.168-.374.454-.22.725l3.018 5.324c.16.286.44.36.74.19z" fill="#fff" fill-opacity=".6"/></svg>