<svg width="220" height="219" fill="none" xmlns="http://www.w3.org/2000/svg"><path opacity=".071" d="M168.88 71.772a7.701 7.701 0 014.107 7.41l-6.127 80.354a7.702 7.702 0 01-6.439 7.017l-74.17 12.112a7.703 7.703 0 01-7.978-3.868l-40.67-73.371a7.702 7.702 0 01.948-8.815l49.576-56.482a7.702 7.702 0 019.362-1.742l71.391 37.385z" stroke="url(#paint0_linear_0_381)"/><path opacity=".143" d="M178.905 97.952a7.703 7.703 0 01.886 8.425l-37.037 71.573a7.702 7.702 0 01-8.669 3.942l-73.006-17.831a7.704 7.704 0 01-5.833-6.678l-8.769-83.429a7.703 7.703 0 014.317-7.744l67.704-32.621a7.703 7.703 0 019.299 2.054l51.108 62.309z" stroke="url(#paint1_linear_0_381)"/><path opacity=".214" d="M177.905 125.968a7.703 7.703 0 01-2.476 8.101l-62.059 51.412a7.704 7.704 0 01-9.52.242l-60.236-44.94a7.703 7.703 0 01-2.76-8.426l24.527-80.223a7.703 7.703 0 017-5.442l75.067-3.574a7.702 7.702 0 017.757 5.525l22.7 77.325z" stroke="url(#paint2_linear_0_381)"/><path opacity=".286" d="M166.037 151.365a7.704 7.704 0 01-5.446 6.49l-77.213 23.076a7.702 7.702 0 01-8.858-3.497l-37.887-64.903a7.702 7.702 0 01.751-8.834l53.923-64.263a7.703 7.703 0 018.57-2.274l70.496 26.042a7.703 7.703 0 014.982 8.116l-9.318 80.047z" stroke="url(#paint3_linear_0_381)"/><path opacity=".357" d="M145.189 170.106a7.702 7.702 0 01-7.548 3.846l-80.092-8.927a7.703 7.703 0 01-6.788-6.68l-9.516-74.548a7.703 7.703 0 014.144-7.838l74.745-38.085a7.702 7.702 0 018.777 1.255l54.717 51.517a7.703 7.703 0 011.415 9.417l-39.854 70.043z" stroke="url(#paint4_linear_0_381)"/><path opacity=".429" d="M118.675 179.212a7.702 7.702 0 01-8.45.591L39.988 140.29a7.703 7.703 0 01-3.638-8.801l20.369-72.34a7.703 7.703 0 016.877-5.596l83.684-5.851a7.702 7.702 0 017.589 4.584l30.238 68.801a7.704 7.704 0 01-2.377 9.222l-64.055 48.903z" stroke="url(#paint5_linear_0_381)"/><path opacity=".5" d="M90.711 177.234a7.703 7.703 0 01-8.01-2.758l-49.214-63.815a7.703 7.703 0 01.09-9.523l47.015-58.63a7.703 7.703 0 018.517-2.465l79.318 27.312a7.701 7.701 0 015.194 7.185l.952 75.147a7.702 7.702 0 01-5.791 7.559l-78.07 19.988z" stroke="url(#paint6_linear_0_381)"/><path opacity=".571" d="M65.744 164.487a7.702 7.702 0 01-6.296-5.669L39.081 80.847a7.703 7.703 0 013.803-8.73l66.186-35.6a7.703 7.703 0 018.803 1.06l62.342 56.132a7.702 7.702 0 011.973 8.643l-28.486 69.545a7.701 7.701 0 01-8.285 4.696l-79.673-12.106z" stroke="url(#paint7_linear_0_381)"/><path opacity=".643" d="M47.742 142.997a7.702 7.702 0 01-3.58-7.677l11.717-79.732a7.703 7.703 0 016.912-6.55l74.835-6.909a7.702 7.702 0 017.689 4.415l35.453 76.029a7.704 7.704 0 01-1.561 8.728l-53.395 52.886a7.704 7.704 0 01-9.461 1.085l-68.61-42.275z" stroke="url(#paint8_linear_0_381)"/><path opacity=".714" d="M39.567 116.182a7.702 7.702 0 01-.296-8.466l41.94-68.815a7.703 7.703 0 018.922-3.328l71.585 22.88a7.704 7.704 0 015.353 7.069l2.927 83.837a7.702 7.702 0 01-4.846 7.425l-69.815 27.818a7.702 7.702 0 01-9.132-2.698l-46.638-65.722z" stroke="url(#paint9_linear_0_381)"/><path opacity=".786" d="M42.52 88.305a7.703 7.703 0 013.035-7.909l65.494-46.958a7.703 7.703 0 019.514.423l56.954 49.032a7.703 7.703 0 012.165 8.598l-30.063 78.317a7.7 7.7 0 01-7.362 4.94l-75.134-1.671a7.703 7.703 0 01-7.353-6.052l-17.25-78.72z" stroke="url(#paint10_linear_0_381)"/><path opacity=".857" d="M56.13 63.797a7.703 7.703 0 015.885-6.094L140.65 40.07a7.702 7.702 0 018.592 4.106l33.268 67.388a7.702 7.702 0 01-1.366 8.761l-58.274 60.344a7.702 7.702 0 01-8.707 1.671l-68.508-30.896A7.702 7.702 0 0141.25 143l14.88-79.203z" stroke="url(#paint11_linear_0_381)"/><path opacity=".929" d="M78.235 46.555a7.702 7.702 0 017.798-3.31l79.274 14.493a7.702 7.702 0 016.305 7.137l4.292 75.03a7.7 7.7 0 01-4.68 7.53l-77.22 32.778a7.701 7.701 0 01-8.668-1.864l-50.99-55.208a7.702 7.702 0 01-.754-9.493l44.643-67.093z" stroke="url(#paint12_linear_0_381)"/><path d="M105.319 39.322a7.702 7.702 0 018.471 0l67.31 44.315a7.703 7.703 0 013.014 9.033l-25.365 70.743a7.702 7.702 0 01-7.25 5.103H67.61a7.703 7.703 0 01-7.25-5.103L34.993 92.67a7.702 7.702 0 013.015-9.033l67.31-44.316z" stroke="url(#paint13_linear_0_381)"/><defs><linearGradient id="paint0_linear_0_381" x1="86.457" y1="68.145" x2="133.272" y2="152.602" gradientUnits="userSpaceOnUse"><stop offset=".141" stop-color="#876CF5" stop-opacity="0"/><stop offset=".458" stop-color="#1FDBFA" stop-opacity=".6"/><stop offset="1" stop-color="#876CF5" stop-opacity=".36"/></linearGradient><linearGradient id="paint1_linear_0_381" x1="104.451" y1="62.407" x2="114.545" y2="158.442" gradientUnits="userSpaceOnUse"><stop offset=".141" stop-color="#876CF5" stop-opacity="0"/><stop offset=".458" stop-color="#1FDBFA" stop-opacity=".6"/><stop offset="1" stop-color="#876CF5" stop-opacity=".36"/></linearGradient><linearGradient id="paint2_linear_0_381" x1="123.259" y1="64.157" x2="95.026" y2="156.502" gradientUnits="userSpaceOnUse"><stop offset=".141" stop-color="#876CF5" stop-opacity="0"/><stop offset=".458" stop-color="#1FDBFA" stop-opacity=".6"/><stop offset="1" stop-color="#876CF5" stop-opacity=".36"/></linearGradient><linearGradient id="paint3_linear_0_381" x1="139.886" y1="73.116" x2="77.815" y2="147.089" gradientUnits="userSpaceOnUse"><stop offset=".141" stop-color="#876CF5" stop-opacity="0"/><stop offset=".458" stop-color="#1FDBFA" stop-opacity=".6"/><stop offset="1" stop-color="#876CF5" stop-opacity=".36"/></linearGradient><linearGradient id="paint4_linear_0_381" x1="151.691" y1="87.859" x2="65.651" y2="131.699" gradientUnits="userSpaceOnUse"><stop offset=".141" stop-color="#876CF5" stop-opacity="0"/><stop offset=".458" stop-color="#1FDBFA" stop-opacity=".6"/><stop offset="1" stop-color="#876CF5" stop-opacity=".36"/></linearGradient><linearGradient id="paint5_linear_0_381" x1="156.797" y1="106.044" x2="60.468" y2="112.78" gradientUnits="userSpaceOnUse"><stop offset=".141" stop-color="#876CF5" stop-opacity="0"/><stop offset=".458" stop-color="#1FDBFA" stop-opacity=".6"/><stop offset="1" stop-color="#876CF5" stop-opacity=".36"/></linearGradient><linearGradient id="paint6_linear_0_381" x1="154.392" y1="124.777" x2="63.088" y2="93.339" gradientUnits="userSpaceOnUse"><stop offset=".141" stop-color="#876CF5" stop-opacity="0"/><stop offset=".458" stop-color="#1FDBFA" stop-opacity=".6"/><stop offset="1" stop-color="#876CF5" stop-opacity=".36"/></linearGradient><linearGradient id="paint7_linear_0_381" x1="144.858" y1="141.082" x2="73.097" y2="76.468" gradientUnits="userSpaceOnUse"><stop offset=".141" stop-color="#876CF5" stop-opacity="0"/><stop offset=".458" stop-color="#1FDBFA" stop-opacity=".6"/><stop offset="1" stop-color="#876CF5" stop-opacity=".36"/></linearGradient><linearGradient id="paint8_linear_0_381" x1="129.711" y1="152.366" x2="88.901" y2="64.849" gradientUnits="userSpaceOnUse"><stop offset=".141" stop-color="#876CF5" stop-opacity="0"/><stop offset=".458" stop-color="#1FDBFA" stop-opacity=".6"/><stop offset="1" stop-color="#876CF5" stop-opacity=".36"/></linearGradient><linearGradient id="paint9_linear_0_381" x1="111.36" y1="156.834" x2="107.99" y2="60.329" gradientUnits="userSpaceOnUse"><stop offset=".141" stop-color="#876CF5" stop-opacity="0"/><stop offset=".458" stop-color="#1FDBFA" stop-opacity=".6"/><stop offset="1" stop-color="#876CF5" stop-opacity=".36"/></linearGradient><linearGradient id="paint10_linear_0_381" x1="92.721" y1="153.777" x2="127.327" y2="63.626" gradientUnits="userSpaceOnUse"><stop offset=".141" stop-color="#876CF5" stop-opacity="0"/><stop offset=".458" stop-color="#1FDBFA" stop-opacity=".6"/><stop offset="1" stop-color="#876CF5" stop-opacity=".36"/></linearGradient><linearGradient id="paint11_linear_0_381" x1="76.76" y1="143.68" x2="143.839" y2="74.217" gradientUnits="userSpaceOnUse"><stop offset=".141" stop-color="#876CF5" stop-opacity="0"/><stop offset=".458" stop-color="#1FDBFA" stop-opacity=".6"/><stop offset="1" stop-color="#876CF5" stop-opacity=".36"/></linearGradient><linearGradient id="paint12_linear_0_381" x1="66.011" y1="128.148" x2="154.899" y2="90.418" gradientUnits="userSpaceOnUse"><stop offset=".141" stop-color="#876CF5" stop-opacity="0"/><stop offset=".458" stop-color="#1FDBFA" stop-opacity=".6"/><stop offset="1" stop-color="#876CF5" stop-opacity=".36"/></linearGradient><linearGradient id="paint13_linear_0_381" x1="62.186" y1="109.652" x2="158.751" y2="109.652" gradientUnits="userSpaceOnUse"><stop offset=".141" stop-color="#876CF5" stop-opacity="0"/><stop offset=".458" stop-color="#1FDBFA" stop-opacity=".6"/><stop offset="1" stop-color="#876CF5" stop-opacity=".36"/></linearGradient></defs></svg>