<svg width="74" height="80" fill="none" xmlns="http://www.w3.org/2000/svg"><g filter="url(#filter0_f_0_120)"><path d="M28 8.619a16 16 0 0116 0l15.177 8.762a16 16 0 018 13.857v17.524a16 16 0 01-8 13.857L44 71.38a16 16 0 01-16 0l-15.177-8.76a16 16 0 01-8-13.857V31.238a16 16 0 018-13.857L28 8.62z" fill="url(#paint0_linear_0_120)"/><path d="M44.5 7.753a17 17 0 00-17 0l-15.177 8.762a17 17 0 00-8.5 14.723v17.524a17 17 0 008.5 14.723L27.5 72.247a17 17 0 0017 0l15.177-8.762a17 17 0 008.5-14.723V31.238a17 17 0 00-8.5-14.723L44.5 7.753z" stroke="url(#paint1_linear_0_120)" stroke-width="2"/></g><path d="M28 8.619a16 16 0 0116 0l15.177 8.762a16 16 0 018 13.857v17.524a16 16 0 01-8 13.857L44 71.38a16 16 0 01-16 0l-15.177-8.76a16 16 0 01-8-13.857V31.238a16 16 0 018-13.857L28 8.62z" fill="url(#paint2_linear_0_120)"/><path d="M28.25 9.052a15.5 15.5 0 0115.5 0l15.177 8.762a15.5 15.5 0 017.75 13.424v17.524a15.5 15.5 0 01-7.75 13.424L43.75 70.948a15.5 15.5 0 01-15.5 0l-15.177-8.762a15.5 15.5 0 01-7.75-13.424V31.238a15.5 15.5 0 017.75-13.424L28.25 9.052z" stroke="#fff" stroke-opacity=".4" style="mix-blend-mode:overlay"/><defs><linearGradient id="paint0_linear_0_120" x1="30.09" y1="31" x2="3.985" y2="67.265" gradientUnits="userSpaceOnUse"><stop stop-color="#C441F4"/><stop offset="1" stop-color="#00DAEA"/></linearGradient><linearGradient id="paint1_linear_0_120" x1="36" y1="4" x2="36" y2="76" gradientUnits="userSpaceOnUse"><stop stop-color="#C618FF"/><stop offset="1" stop-color="#00C3FB"/></linearGradient><linearGradient id="paint2_linear_0_120" x1="30.09" y1="35.286" x2="20.569" y2="60.535" gradientUnits="userSpaceOnUse"><stop stop-color="#C441F4"/><stop offset="1" stop-color="#00DAEA"/></linearGradient><filter id="filter0_f_0_120" x="-1.177" y=".475" width="74.354" height="79.05" filterUnits="userSpaceOnUse" color-interpolation-filters="sRGB"><feFlood flood-opacity="0" result="BackgroundImageFix"/><feBlend in="SourceGraphic" in2="BackgroundImageFix" result="shape"/><feGaussianBlur stdDeviation="2" result="effect1_foregroundBlur_0_120"/></filter></defs></svg>