<svg width="50" height="51" fill="none" xmlns="http://www.w3.org/2000/svg"><g filter="url(#filter0_f_0_157)"><path d="M25 45.753c11.322 0 20.5-9.178 20.5-20.5s-9.178-20.5-20.5-20.5-20.5 9.178-20.5 20.5 9.178 20.5 20.5 20.5z" stroke="url(#paint0_linear_0_157)" style="mix-blend-mode:overlay"/></g><path d="M44.5 25.253c0 10.77-8.73 19.5-19.5 19.5s-19.5-8.73-19.5-19.5 8.73-19.5 19.5-19.5 19.5 8.73 19.5 19.5z" fill="#000" fill-opacity=".2"/><path d="M44.5 25.253c0 10.77-8.73 19.5-19.5 19.5s-19.5-8.73-19.5-19.5 8.73-19.5 19.5-19.5 19.5 8.73 19.5 19.5z" stroke="url(#paint1_linear_0_157)" style="mix-blend-mode:overlay"/><path d="M25.267 36.599c6.23 0 11.343-5.124 11.343-11.355 0-6.22-5.124-11.344-11.343-11.344-6.23 0-11.344 5.124-11.344 11.344 0 6.23 5.124 11.355 11.344 11.355zm-4.211-5.973c-.87.376-1.537-.29-1.16-1.16l2.696-6.027a1.59 1.59 0 01.88-.87l5.995-2.696c.913-.397 1.557.269 1.181 1.16l-2.696 6.016a1.626 1.626 0 01-.88.87l-6.016 2.707zm4.221-3.867a1.49 1.49 0 001.493-1.493 1.5 1.5 0 00-1.493-1.504c-.827 0-1.504.677-1.504 1.504a1.5 1.5 0 001.504 1.493z" fill="#fff" style="mix-blend-mode:overlay"/><defs><linearGradient id="paint0_linear_0_157" x1="11.5" y1="10.253" x2="40.5" y2="36.253" gradientUnits="userSpaceOnUse"><stop stop-color="#C322FF"/><stop offset="1" stop-color="#00BAE1"/></linearGradient><linearGradient id="paint1_linear_0_157" x1="11.5" y1="10.253" x2="40.5" y2="36.253" gradientUnits="userSpaceOnUse"><stop stop-color="#E8A9FF"/><stop offset="1" stop-color="#53E1FF"/></linearGradient><filter id="filter0_f_0_157" x="0" y=".253" width="50" height="50" filterUnits="userSpaceOnUse" color-interpolation-filters="sRGB"><feFlood flood-opacity="0" result="BackgroundImageFix"/><feBlend in="SourceGraphic" in2="BackgroundImageFix" result="shape"/><feGaussianBlur stdDeviation="2" result="effect1_foregroundBlur_0_157"/></filter></defs></svg>