<svg width="40" height="41" fill="none" xmlns="http://www.w3.org/2000/svg"><path fill-rule="evenodd" clip-rule="evenodd" d="M20 40.253c11.046 0 20-8.954 20-20s-8.954-20-20-20-20 8.954-20 20 8.954 20 20 20z" fill="#000" fill-opacity=".2"/><path d="M10.74 20.497c0 .902.73 1.633 1.632 1.633h5.962v5.962c0 .892.72 1.633 1.622 1.633a1.64 1.64 0 001.633-1.633V22.13h5.962a1.628 1.628 0 000-3.255h-5.962v-5.962a1.64 1.64 0 00-1.633-1.633 1.63 1.63 0 00-1.622 1.633v5.962h-5.962a1.63 1.63 0 00-1.633 1.622z" fill="#fff" style="mix-blend-mode:overlay"/></svg>