<svg width="64" height="68" fill="none" xmlns="http://www.w3.org/2000/svg"><path d="M24 2.619a16 16 0 0116 0l15.177 8.762a16 16 0 018 13.857v17.524a16 16 0 01-8 13.857L40 65.38a16 16 0 01-16 0L8.823 56.62a16 16 0 01-8-13.857V25.238a16 16 0 018-13.857L24 2.62z" fill="url(#paint0_linear_0_122)"/><path d="M24.25 3.052a15.5 15.5 0 0115.5 0l15.177 8.762a15.5 15.5 0 017.75 13.424v17.524a15.5 15.5 0 01-7.75 13.424L39.75 64.948a15.5 15.5 0 01-15.5 0L9.073 56.186a15.5 15.5 0 01-7.75-13.424V25.238a15.5 15.5 0 017.75-13.424L24.25 3.052z" stroke="#fff" stroke-opacity=".4" style="mix-blend-mode:overlay"/><defs><linearGradient id="paint0_linear_0_122" x1="26.09" y1="29.286" x2="16.569" y2="54.535" gradientUnits="userSpaceOnUse"><stop stop-color="#C441F4"/><stop offset="1" stop-color="#00DAEA"/></linearGradient></defs></svg>