<svg width="21" height="14" fill="none" xmlns="http://www.w3.org/2000/svg"><path d="M3.431 13.318c.975 0 1.641-.358 2.234-1.076l1.245-1.494c.184-.213.381-.315.594-.315h6.62c.213 0 .41.102.594.315l1.245 1.494c.593.717 1.26 1.076 2.234 1.076 1.59 0 2.666-1.054 2.666-2.695 0-.703-.161-1.509-.432-2.41a37.548 37.548 0 00-1.875-4.848c-.593-1.253-.908-1.839-2.388-2.176-1.318-.3-3.135-.498-5.354-.498-2.219 0-4.035.198-5.346.498-1.487.337-1.802.923-2.395 2.176a37.556 37.556 0 00-1.875 4.848c-.271.901-.433 1.707-.433 2.41 0 1.64 1.077 2.695 2.666 2.695zm1.758-7.69c0-.359.22-.586.593-.586h1.224v-1.18c0-.365.212-.592.57-.592.345 0 .565.227.565.593v1.179h1.15c.395 0 .63.227.63.586 0 .366-.235.593-.63.593H8.14v1.187c0 .366-.22.593-.564.593-.359 0-.571-.227-.571-.593V6.22H5.782c-.373 0-.593-.227-.593-.593zm8.87-1.084a1 1 0 011.003-1.018.995.995 0 011.004 1.018.98.98 0 01-1.004.996.985.985 0 01-1.003-.996zm-2.044 2.058c0-.571.44-1.01 1.004-1.01a.993.993 0 011.003 1.01.987.987 0 01-1.003 1.003.987.987 0 01-1.004-1.003z" fill="#fff" fill-opacity=".8"/></svg>