<svg width="15" height="16" fill="none" xmlns="http://www.w3.org/2000/svg"><path d="M7.335 15.095c3.882 0 7.097-3.216 7.097-7.097C14.432 4.116 11.21.9 7.328.9 3.453.9.238 4.116.238 7.998c0 3.881 3.215 7.097 7.097 7.097zm-1.904-8.46a1.075 1.075 0 00-.33-.68 10.825 10.825 0 012.813-4.03c.088.008.183.023.27.037a11.68 11.68 0 00-1.56 4.98 8.399 8.399 0 01-1.193-.307zM2.252 4.658a6.17 6.17 0 014.402-2.725 11.62 11.62 0 00-2.366 3.713 1.055 1.055 0 00-.564.184 8.087 8.087 0 01-1.472-1.172zm7.244.066a7.497 7.497 0 01.322-2.286 6.245 6.245 0 013.047 3.01 7.829 7.829 0 01-2.351 1.224 1.117 1.117 0 00-.842-.425 7.47 7.47 0 01-.176-1.523zm-.872.007c.008.637.088 1.26.227 1.868a1.012 1.012 0 00-.249.44 6.35 6.35 0 01-.527.021c-.198 0-.388-.007-.579-.015.118-1.633.6-3.193 1.407-4.585a8.65 8.65 0 00-.279 2.271zM1.241 7.998c0-.901.198-1.758.557-2.535.447.418.93.791 1.45 1.114a1.09 1.09 0 00.454 1.07c-.139.71-.22 1.435-.22 2.174A10.936 10.936 0 011.25 8.364c-.008-.117-.008-.242-.008-.366zm12.195 0a6.12 6.12 0 01-.241 1.684c-.403.213-.813.396-1.23.557a7.757 7.757 0 01-1.605-2.08c.183-.161.315-.381.359-.63a9.074 9.074 0 002.476-1.223 6.16 6.16 0 01.241 1.692zm-6.84-.169c0 .894.102 1.773.292 2.622-.11.095-.212.213-.278.344a11.008 11.008 0 01-2.256-.593c-.022-.806.044-1.604.198-2.373.242-.044.461-.176.615-.359a8.46 8.46 0 001.428.344v.015zm1.479.103c.22 0 .432-.008.644-.022a1.1 1.1 0 00.799.505c.388.784.9 1.502 1.516 2.124-.798.22-1.611.344-2.424.374a1.1 1.1 0 00-.872-.689 10.568 10.568 0 01-.271-2.307c.198.007.403.015.608.015zM1.469 9.646c.644.454 1.325.842 2.036 1.15.036.732.146 1.464.337 2.175a6.184 6.184 0 01-2.373-3.325zm5.866 4.453c-.835 0-1.64-.176-2.373-.498a9.108 9.108 0 01-.556-2.454 11.31 11.31 0 002.13.52c.147.418.536.725.997.747.242.55.52 1.084.842 1.59a6.102 6.102 0 01-1.04.095zm1.018-2c.095-.088.169-.198.227-.315a11.724 11.724 0 003.208-.557c.154.118.308.235.47.345a6.198 6.198 0 01-2.997 2.204 10.604 10.604 0 01-.908-1.677z" fill="#fff" fill-opacity=".8"/></svg>