<svg width="13" height="18" fill="none" xmlns="http://www.w3.org/2000/svg"><path d="M3.483 1.827h6.76c-.037-.6-.38-.915-1.033-.915H4.523c-.652 0-.996.315-1.04.915zM2.28 3.775h9.163c-.102-.637-.41-.996-1.12-.996H3.408c-.71 0-1.025.36-1.128.996zm.696 13.323h7.991c1.274 0 2.014-.732 2.014-2.175V7.07c0-1.45-.747-2.182-2.212-2.182H2.977C1.512 4.889.765 5.62.765 7.07v7.852c0 1.443.747 2.175 2.212 2.175zm1.678-4.255c-1.348 0-2.337.784-2.688 1.662v-7.36c0-.704.373-1.062 1.047-1.062h7.72c.666 0 1.047.358 1.047 1.062v6.95c-.52-.688-1.465-1.238-2.71-1.238-1.985 0-3.23 1.421-3.23 2.535 0 .227.051.395.125.512H5.1a1.967 1.967 0 01-.066-.512c0-.828.396-1.604 1.048-2.205-.381-.227-.85-.344-1.428-.344zm4.416-.813c.828 0 1.53-.733 1.53-1.692 0-.945-.702-1.648-1.53-1.648-.82 0-1.538.725-1.53 1.662 0 .945.71 1.678 1.53 1.678zm-4.41.095c.719 0 1.334-.645 1.334-1.487 0-.82-.615-1.428-1.333-1.428s-1.34.623-1.34 1.435c0 .835.622 1.48 1.34 1.48z" fill="#fff" fill-opacity=".8"/></svg>